<svg id="Layer_1" data-name="Layer 1" xmlns="http://www.w3.org/2000/svg" viewBox="0 0 46.81 6.97"><path d="M26,3.78a1.27,1.27,0,0,0,.87-.26.87.87,0,0,0,.3-.68v0a.82.82,0,0,0-.29-.68,1.21,1.21,0,0,0-.74-.22,1.26,1.26,0,0,0-.73.2,1.59,1.59,0,0,0-.45.51l-.5-.38a1.87,1.87,0,0,1,.26-.33,1.72,1.72,0,0,1,.35-.3,2.9,2.9,0,0,1,.47-.21,2.33,2.33,0,0,1,.62-.08,2.41,2.41,0,0,1,.67.1,1.66,1.66,0,0,1,.55.27,1.39,1.39,0,0,1,.36.44,1.34,1.34,0,0,1,.14.61,1.3,1.3,0,0,1-.09.49,1,1,0,0,1-.24.37,1.34,1.34,0,0,1-.34.28,1.59,1.59,0,0,1-.43.16v0a1.42,1.42,0,0,1,.45.16,1.21,1.21,0,0,1,.39.28,1.15,1.15,0,0,1,.26.41,1.4,1.4,0,0,1,.11.56,1.45,1.45,0,0,1-.15.66,1.52,1.52,0,0,1-.39.52A1.88,1.88,0,0,1,26.8,7,2.43,2.43,0,0,1,26,7.1,2.57,2.57,0,0,1,25.36,7a2.38,2.38,0,0,1-.51-.22,1.91,1.91,0,0,1-.38-.31,2.34,2.34,0,0,1-.29-.35l.5-.38q.12.17.24.3a1.55,1.55,0,0,0,.27.24,1.14,1.14,0,0,0,.36.15,1.6,1.6,0,0,0,.46.06,1.35,1.35,0,0,0,.91-.27.94.94,0,0,0,.32-.78V5.4a1,1,0,0,0-.31-.77A1.3,1.3,0,0,0,26,4.35h-.67V3.78Zm4.81,0a1.27,1.27,0,0,0,.87-.26.87.87,0,0,0,.3-.68v0a.82.82,0,0,0-.29-.68,1.21,1.21,0,0,0-.74-.22,1.26,1.26,0,0,0-.73.2,1.59,1.59,0,0,0-.45.51l-.5-.38a1.87,1.87,0,0,1,.26-.33,1.72,1.72,0,0,1,.35-.3,2.56,2.56,0,0,1,.47-.21,2.33,2.33,0,0,1,.62-.08,2.41,2.41,0,0,1,.67.1,1.66,1.66,0,0,1,.55.27,1.39,1.39,0,0,1,.36.44,1.34,1.34,0,0,1,.14.61,1.3,1.3,0,0,1-.09.49,1,1,0,0,1-.24.37,1.34,1.34,0,0,1-.34.28,1.59,1.59,0,0,1-.43.16v0a1.42,1.42,0,0,1,.45.16,1.21,1.21,0,0,1,.39.28,1.15,1.15,0,0,1,.26.41,1.4,1.4,0,0,1,.11.56,1.45,1.45,0,0,1-.15.66,1.52,1.52,0,0,1-.39.52,1.88,1.88,0,0,1-.61.33,2.43,2.43,0,0,1-.79.12A2.57,2.57,0,0,1,30.17,7a2.38,2.38,0,0,1-.51-.22,1.91,1.91,0,0,1-.38-.31A2.34,2.34,0,0,1,29,6.14l.5-.38q.12.17.24.3A1.55,1.55,0,0,0,30,6.3a1.14,1.14,0,0,0,.36.15,1.6,1.6,0,0,0,.46.06,1.35,1.35,0,0,0,.91-.27.94.94,0,0,0,.32-.78V5.4a1,1,0,0,0-.31-.77,1.3,1.3,0,0,0-.92-.28h-.67V3.78Zm5.05,3.29a.66.66,0,0,1-.47-.13.53.53,0,0,1-.12-.35V6.45a.51.51,0,0,1,.12-.35A.66.66,0,0,1,35.82,6a.63.63,0,0,1,.46.13.48.48,0,0,1,.13.35v.14a.49.49,0,0,1-.13.35A.63.63,0,0,1,35.82,7.07Zm4.81,0A2.79,2.79,0,0,1,39.77,7a1.86,1.86,0,0,1-.62-.35,1.46,1.46,0,0,1-.37-.51,1.69,1.69,0,0,1-.12-.64A1.3,1.3,0,0,1,39,4.56a1.71,1.71,0,0,1,.82-.47V4a1.45,1.45,0,0,1-.71-.49,1.34,1.34,0,0,1-.26-.82,1.23,1.23,0,0,1,.48-1,2.43,2.43,0,0,1,2.64,0,1.23,1.23,0,0,1,.48,1,1.28,1.28,0,0,1-.27.82,1.42,1.42,0,0,1-.7.49v.07a1.71,1.71,0,0,1,.82.47,1.3,1.3,0,0,1,.31.92,1.69,1.69,0,0,1-.12.64,1.34,1.34,0,0,1-.37.51,1.86,1.86,0,0,1-.62.35A2.68,2.68,0,0,1,40.63,7.1Zm0-.57a1.47,1.47,0,0,0,.93-.27.89.89,0,0,0,.34-.74V5.34a.92.92,0,0,0-.34-.75,1.49,1.49,0,0,0-.93-.26,1.54,1.54,0,0,0-.94.26.92.92,0,0,0-.33.75v.18a.86.86,0,0,0,.34.74A1.43,1.43,0,0,0,40.63,6.53Zm0-2.75a1.26,1.26,0,0,0,.83-.23.81.81,0,0,0,.28-.67V2.77a.77.77,0,0,0-.29-.66,1.27,1.27,0,0,0-.82-.24,1.3,1.3,0,0,0-.83.24.79.79,0,0,0-.29.66v.11a.84.84,0,0,0,.28.67A1.31,1.31,0,0,0,40.63,3.78Zm4.81.27a1.42,1.42,0,0,1-1-.4,1.3,1.3,0,0,1-.29-.43,1.4,1.4,0,0,1-.1-.54,1.33,1.33,0,0,1,.1-.54,1.35,1.35,0,0,1,.29-.44A1.39,1.39,0,0,1,46,1.41a1.26,1.26,0,0,1,.43.29,1.23,1.23,0,0,1,.3.44,1.33,1.33,0,0,1,.1.54,1.4,1.4,0,0,1-.1.54,1.19,1.19,0,0,1-.3.43,1.26,1.26,0,0,1-.43.29A1.41,1.41,0,0,1,45.44,4.05Zm0-.52A.74.74,0,0,0,46,3.29a.89.89,0,0,0,.23-.61A.87.87,0,0,0,46,2.07a.81.81,0,0,0-1.17,0,.86.86,0,0,0-.22.61.88.88,0,0,0,.22.61A.75.75,0,0,0,45.44,3.53Z" transform="translate(0 -0.54)" fill="#fff"/><rect width="5.9" height="6.97" fill="#fff"/><rect x="5.89" width="6.43" height="6.97" fill="#fff" opacity="0.4" style="isolation:isolate"/><rect x="12.33" width="5.9" height="6.97" fill="#fff" opacity="0.2" style="isolation:isolate"/></svg>