<svg width="27" height="27" viewBox="0 0 27 27" fill="none" xmlns="http://www.w3.org/2000/svg">
<path d="M14.8888 24.1875C17.5603 23.886 20.031 22.6235 21.8406 20.6353C23.6503 18.6472 24.6755 16.069 24.7252 13.381C24.7749 10.693 23.8457 8.07868 22.1108 6.02499C20.3759 3.9713 17.9535 2.61836 15.295 2.21823" stroke="black"/>
<path d="M12.1112 24.1875C9.43975 23.886 6.96903 22.6235 5.15936 20.6353C3.3497 18.6472 2.32451 16.069 2.27481 13.381C2.2251 10.693 3.15427 8.07868 4.8892 6.02499C6.62413 3.9713 9.04649 2.61836 11.705 2.21823" stroke="black"/>
<line x1="9.83301" y1="13.2356" x2="9.83301" y2="14.022" stroke="black" stroke-linecap="round"/>
<line x1="12.4746" y1="9.66235" x2="12.4746" y2="17.5943" stroke="black" stroke-linecap="round"/>
<line x1="15.1182" y1="11.4482" x2="15.1182" y2="15.8074" stroke="black" stroke-linecap="round"/>
<line x1="17.7588" y1="13.2356" x2="17.7588" y2="14.022" stroke="black" stroke-linecap="round"/>
</svg>
