<svg width="1437" height="318" viewBox="0 0 1437 318" fill="none" xmlns="http://www.w3.org/2000/svg">
<path d="M263.268 318C272.126 318 278.187 314.27 282.384 307.277L360.245 170.204C364.441 163.21 364.441 155.75 360.245 148.291L282.384 11.684C278.187 4.69041 272.126 0.960559 263.268 0.960559L101.485 0.960559C92.6262 0.960559 86.5651 4.69041 82.369 11.684L4.50784 148.291C0.311724 155.75 0.311724 163.21 4.50784 170.204L82.369 307.277C86.5651 314.27 92.6262 318 101.485 318L263.268 318ZM77.2404 159.48L130.391 66.2334H234.361L287.512 159.48L234.361 252.727L130.391 252.727L77.2404 159.48ZM611.764 0.960559C601.04 0.960559 595.445 6.55536 595.445 17.2788V126.378H496.138C488.212 126.378 481.684 129.641 476.556 136.635L460.237 157.149C458.839 159.014 456.974 159.947 454.176 159.947H447.649C444.385 159.947 442.987 158.548 442.987 155.284L442.987 17.2788C442.987 6.55536 437.392 0.960559 426.669 0.960559H387.505C376.781 0.960559 371.187 6.55536 371.187 17.2788L371.187 301.682C371.187 312.405 376.781 318 387.505 318H426.669C437.392 318 442.987 312.405 442.987 301.682V191.65L595.445 191.65L595.445 301.682C595.445 312.405 601.04 318 611.764 318H650.927C661.651 318 667.246 312.405 667.246 301.682L667.246 17.2788C667.246 6.55536 661.651 0.960559 650.927 0.960559L611.764 0.960559ZM806.577 318C817.3 318 822.895 312.405 822.895 301.682L822.895 124.513C822.895 114.256 821.03 105.863 817.766 98.8698L805.178 74.6256C802.847 70.4295 804.246 66.2334 807.976 66.2334H814.037C816.834 66.2334 818.699 67.1658 819.631 69.497L945.515 306.344C949.245 314.27 955.772 318 964.63 318H1042.49C1053.21 318 1058.81 312.405 1058.81 301.682V17.2788C1058.81 6.55536 1053.21 0.960559 1042.49 0.960559H1003.33C992.604 0.960559 987.01 6.55536 987.01 17.2788V194.448C987.01 204.705 988.875 213.097 992.138 220.091L1004.73 244.335C1007.06 248.531 1005.66 252.727 1001.93 252.727H995.868C993.071 252.727 991.206 251.795 990.273 249.464L864.39 12.6164C860.66 4.69041 854.133 0.960559 845.274 0.960559L767.413 0.960559C756.69 0.960559 751.095 6.55536 751.095 17.2788L751.095 301.682C751.095 312.405 756.69 318 767.413 318H806.577ZM1335.77 318C1344.63 318 1350.69 314.27 1354.89 307.277L1432.75 170.204C1436.94 163.21 1436.94 155.75 1432.75 148.291L1354.89 11.684C1350.69 4.69041 1344.63 0.960559 1335.77 0.960559L1173.99 0.960559C1165.13 0.960559 1159.07 4.69041 1154.87 11.684L1077.01 148.291C1072.81 155.75 1072.81 163.21 1077.01 170.204L1154.87 307.277C1159.07 314.27 1165.13 318 1173.99 318L1335.77 318ZM1149.74 159.48L1202.89 66.2334L1306.86 66.2334L1360.02 159.48L1306.86 252.727L1202.89 252.727L1149.74 159.48Z" fill="black"/>
</svg>
