<svg viewBox="0 0 3071 533" fill="none" xmlns="http://www.w3.org/2000/svg">
<path d="M429.195 19.3527C422.148 6.82474 411.186 0.560783 397.092 0.560783L79.9778 0.560783C70.5818 0.560783 59.6198 7.60778 47.0919 20.9187L14.2059 56.9367C5.59292 66.3327 0.894929 77.2947 0.894929 90.6057L0.894929 505.595C0.894929 523.604 10.2909 533 28.2999 533H94.0718C112.081 533 121.477 523.604 121.477 505.595L121.477 356.042C121.477 350.561 123.826 348.212 129.307 348.212H295.302L381.432 514.991C387.696 526.736 399.441 533 416.667 533H475.392C497.316 533 506.712 519.689 497.316 500.114L418.233 348.212L508.278 192.395C515.325 180.651 515.325 168.123 508.278 155.595L429.195 19.3527ZM210.739 238.592C197.428 238.592 186.466 244.073 177.853 255.818L150.448 290.27C148.099 293.402 144.967 294.968 140.269 294.968H129.307C123.826 294.968 121.477 292.619 121.477 287.138L121.477 110.181L352.461 110.181L387.696 174.387L352.461 238.592L210.739 238.592ZM971.722 533C989.731 533 999.127 523.604 999.127 505.595V450.002C999.127 431.993 989.731 422.597 971.722 422.597L653.824 422.597L653.824 327.071C653.824 321.59 656.173 319.241 661.654 319.241H938.053C956.062 319.241 965.458 309.845 965.458 291.836V241.724C965.458 223.715 956.062 214.319 938.053 214.319H748.567C733.69 214.319 721.945 219.8 712.549 231.545L682.795 269.129C680.446 272.261 677.314 273.827 672.616 273.827H661.654C656.173 273.827 653.824 271.478 653.824 265.997V110.964L971.722 110.964C989.731 110.964 999.127 101.568 999.127 83.5587V27.9657C999.127 9.95674 989.731 0.560783 971.722 0.560783L612.325 0.560783C602.929 0.560783 591.967 7.60778 579.439 20.9187L546.553 56.9367C537.94 66.3327 533.242 77.2947 533.242 90.6057L533.242 442.955C533.242 456.266 537.94 467.228 546.553 476.624L579.439 512.642C591.967 525.953 602.929 533 612.325 533L971.722 533ZM1443.75 533C1458.62 533 1469.59 526.736 1476.63 514.208L1552.58 388.928C1560.41 376.4 1560.41 363.872 1552.58 351.344L1476.63 233.111C1468.8 221.366 1457.84 215.102 1444.53 215.102H1182.23L1150.91 162.642L1182.23 110.181L1479.77 110.181C1497.77 110.181 1506.39 101.568 1506.39 83.5587V27.1827C1506.39 9.17375 1497.77 0.560783 1479.77 0.560783L1137.6 0.560783C1122.72 0.560783 1111.76 6.82474 1104.71 19.3527L1028.76 144.633C1020.93 157.161 1020.93 169.689 1028.76 182.217L1104.71 300.449C1112.54 312.194 1123.5 318.458 1136.81 318.458H1399.12L1430.44 370.919L1399.12 423.38H1085.92C1067.91 423.38 1059.3 431.993 1059.3 450.002V506.378C1059.3 524.387 1067.91 533 1085.92 533H1443.75ZM1824.98 110.181H2024.64C2042.65 110.181 2052.05 100.785 2052.05 82.7756V27.9657C2052.05 9.95674 2042.65 0.560783 2024.64 0.560783L1590.08 0.560783C1572.07 0.560783 1562.67 9.95674 1562.67 27.9657V82.7756C1562.67 100.785 1572.07 110.181 1590.08 110.181L1751.37 110.181L1751.37 423.38H1590.08C1572.07 423.38 1562.67 432.776 1562.67 450.785V505.595C1562.67 523.604 1572.07 533 1590.08 533H2024.64C2042.65 533 2052.05 523.604 2052.05 505.595V450.785C2052.05 432.776 2042.65 423.38 2024.64 423.38H1871.96L1871.96 193.961C1871.96 180.651 1866.48 169.689 1854.73 161.076L1821.84 136.803C1818.71 134.454 1817.15 131.322 1817.15 127.407V118.011C1817.15 112.53 1819.5 110.181 1824.98 110.181ZM2541.51 533C2559.52 533 2568.92 523.604 2568.92 505.595V450.785C2568.92 432.776 2559.52 423.38 2541.51 423.38H2302.7C2281.56 423.38 2267.46 426.512 2259.63 432.776L2236.14 450.785C2229.1 456.266 2219.7 453.134 2219.7 446.087V439.04C2219.7 435.125 2221.27 431.993 2223.61 429.644L2549.34 133.671C2562.65 121.926 2568.92 110.181 2568.92 98.4356V27.9657C2568.92 9.95674 2559.52 0.560783 2541.51 0.560783L2110.86 0.560783C2092.85 0.560783 2083.46 9.95674 2083.46 27.9657V82.7756C2083.46 100.785 2092.85 110.181 2110.86 110.181H2349.68C2370.82 110.181 2384.91 107.049 2392.74 100.785L2416.23 82.7756C2423.28 77.2947 2432.68 80.4267 2432.68 87.4737V94.5206C2432.68 98.4356 2431.11 101.568 2428.76 103.917L2103.03 399.89C2089.72 411.635 2083.46 423.38 2083.46 435.125V505.595C2083.46 523.604 2092.85 533 2110.86 533L2541.51 533ZM3043 533C3061.01 533 3070.4 523.604 3070.4 505.595V450.002C3070.4 431.993 3061.01 422.597 3043 422.597H2725.1V327.071C2725.1 321.59 2727.45 319.241 2732.93 319.241H3009.33C3027.34 319.241 3036.73 309.845 3036.73 291.836V241.724C3036.73 223.715 3027.34 214.319 3009.33 214.319H2819.84C2804.97 214.319 2793.22 219.8 2783.83 231.545L2754.07 269.129C2751.72 272.261 2748.59 273.827 2743.89 273.827H2732.93C2727.45 273.827 2725.1 271.478 2725.1 265.997V110.964L3043 110.964C3061.01 110.964 3070.4 101.568 3070.4 83.5587V27.9657C3070.4 9.95674 3061.01 0.560783 3043 0.560783L2683.6 0.560783C2674.21 0.560783 2663.24 7.60778 2650.72 20.9187L2617.83 56.9367C2609.22 66.3327 2604.52 77.2947 2604.52 90.6057V442.955C2604.52 456.266 2609.22 467.228 2617.83 476.624L2650.72 512.642C2663.24 525.953 2674.21 533 2683.6 533H3043Z" fill="black"/>
</svg>
