<svg width="85" height="85" viewBox="0 0 85 85" fill="none" xmlns="http://www.w3.org/2000/svg">
<path d="M51.4143 74.0132C55.5352 72.8596 59.3906 70.9112 62.7604 68.2795C66.1303 65.6477 68.9485 62.3842 71.0542 58.6754C73.1599 54.9666 74.512 50.8852 75.0333 46.6642C75.5547 42.4432 75.2352 38.1653 74.0931 34.0745C72.9511 29.9837 71.0088 26.1601 68.3772 22.822C65.7456 19.4838 62.476 16.6963 58.755 14.6189C55.034 12.5414 50.9344 11.2147 46.6903 10.7145C42.4462 10.2144 38.1408 10.5507 34.02 11.7044" stroke="url(#paint0_linear_3249_14003)"/>
<path d="M33.4211 13.6708C33.3788 13.7559 33.2826 13.7995 33.1908 13.7752L30.4678 13.054C30.3288 13.0172 30.2729 12.8501 30.3618 12.7371L32.1024 10.5224C32.1611 10.4477 32.2642 10.4246 32.3492 10.4671L34.3037 11.4454C34.4023 11.4947 34.4424 11.6145 34.3934 11.7132L33.4211 13.6708Z" stroke="black" stroke-miterlimit="10"/>
<defs>
<linearGradient id="paint0_linear_3249_14003" x1="33.969" y1="12.6642" x2="54.3574" y2="73.5988" gradientUnits="userSpaceOnUse">
<stop/>
<stop offset="1" stop-opacity="0"/>
</linearGradient>
</defs>
</svg>
